<?xml version="1.0" encoding="UTF-8"?>
<svg xmlns="http://www.w3.org/2000/svg" version="1.1" width="500" height="500" viewBox="0 0 500 500"><rect x="0" y="0" width="500" height="500" fill="#ffffff"/><g transform="scale(17.241)"><g transform="translate(0,0)"><path fill-rule="evenodd" d="M11 0L11 1L9 1L9 2L8 2L8 8L10 8L10 9L7 9L7 8L2 8L2 9L4 9L4 13L5 13L5 14L3 14L3 12L2 12L2 11L3 11L3 10L2 10L2 11L1 11L1 12L0 12L0 14L1 14L1 15L0 15L0 16L1 16L1 15L2 15L2 16L3 16L3 15L5 15L5 16L4 16L4 19L3 19L3 17L0 17L0 21L1 21L1 18L2 18L2 19L3 19L3 20L4 20L4 19L7 19L7 18L8 18L8 20L6 20L6 21L8 21L8 22L10 22L10 21L9 21L9 20L11 20L11 19L12 19L12 21L11 21L11 22L13 22L13 24L14 24L14 25L15 25L15 26L17 26L17 25L16 25L16 23L17 23L17 24L20 24L20 26L19 26L19 25L18 25L18 27L20 27L20 28L18 28L18 29L23 29L23 28L21 28L21 27L20 27L20 26L22 26L22 25L23 25L23 27L24 27L24 25L25 25L25 23L26 23L26 25L29 25L29 23L27 23L27 22L28 22L28 20L25 20L25 19L29 19L29 18L26 18L26 17L24 17L24 16L25 16L25 15L27 15L27 16L29 16L29 14L28 14L28 13L27 13L27 14L26 14L26 13L25 13L25 12L26 12L26 11L27 11L27 10L28 10L28 9L27 9L27 8L22 8L22 9L23 9L23 11L21 11L21 10L19 10L19 9L18 9L18 8L20 8L20 9L21 9L21 6L20 6L20 5L21 5L21 2L20 2L20 1L21 1L21 0L18 0L18 1L17 1L17 0L15 0L15 1L17 1L17 2L16 2L16 4L12 4L12 3L13 3L13 1L12 1L12 0ZM11 1L11 2L10 2L10 3L9 3L9 7L10 7L10 6L11 6L11 9L10 9L10 10L11 10L11 12L10 12L10 11L6 11L6 12L7 12L7 13L6 13L6 14L5 14L5 15L6 15L6 16L7 16L7 15L6 15L6 14L7 14L7 13L8 13L8 15L9 15L9 16L8 16L8 18L9 18L9 19L11 19L11 18L10 18L10 17L9 17L9 16L11 16L11 17L13 17L13 21L16 21L16 22L17 22L17 21L18 21L18 18L19 18L19 19L23 19L23 18L24 18L24 19L25 19L25 18L24 18L24 17L21 17L21 16L22 16L22 15L23 15L23 13L24 13L24 12L21 12L21 13L22 13L22 14L20 14L20 12L18 12L18 11L19 11L19 10L18 10L18 9L17 9L17 7L18 7L18 6L17 6L17 7L16 7L16 6L15 6L15 7L14 7L14 6L13 6L13 5L12 5L12 6L11 6L11 5L10 5L10 3L12 3L12 1ZM18 1L18 2L17 2L17 4L16 4L16 5L18 5L18 4L20 4L20 3L18 3L18 2L19 2L19 1ZM14 2L14 3L15 3L15 2ZM12 6L12 7L13 7L13 8L14 8L14 9L15 9L15 10L17 10L17 11L16 11L16 13L12 13L12 12L11 12L11 13L10 13L10 12L8 12L8 13L10 13L10 14L9 14L9 15L11 15L11 16L14 16L14 17L15 17L15 18L17 18L17 17L19 17L19 18L20 18L20 17L19 17L19 16L21 16L21 15L19 15L19 16L17 16L17 17L16 17L16 15L18 15L18 14L16 14L16 13L17 13L17 11L18 11L18 10L17 10L17 9L16 9L16 7L15 7L15 8L14 8L14 7L13 7L13 6ZM19 6L19 7L20 7L20 6ZM0 8L0 10L1 10L1 8ZM6 9L6 10L7 10L7 9ZM12 9L12 11L13 11L13 9ZM26 9L26 10L27 10L27 9ZM24 10L24 11L25 11L25 10ZM14 11L14 12L15 12L15 11ZM28 11L28 12L29 12L29 11ZM1 12L1 14L2 14L2 12ZM24 14L24 15L25 15L25 14ZM14 15L14 16L15 16L15 15ZM6 17L6 18L7 18L7 17ZM14 19L14 20L15 20L15 19ZM16 19L16 21L17 21L17 19ZM19 20L19 22L18 22L18 23L20 23L20 20ZM21 21L21 24L24 24L24 21ZM25 21L25 22L27 22L27 21ZM22 22L22 23L23 23L23 22ZM8 23L8 27L9 27L9 25L11 25L11 26L12 26L12 25L11 25L11 24L12 24L12 23L11 23L11 24L9 24L9 23ZM14 23L14 24L15 24L15 23ZM13 26L13 28L12 28L12 27L11 27L11 28L10 28L10 29L15 29L15 27L14 27L14 26ZM26 26L26 27L25 27L25 28L24 28L24 29L27 29L27 27L28 27L28 28L29 28L29 27L28 27L28 26ZM16 27L16 29L17 29L17 27ZM8 28L8 29L9 29L9 28ZM0 0L7 0L7 7L0 7ZM1 1L1 6L6 6L6 1ZM2 2L5 2L5 5L2 5ZM22 0L29 0L29 7L22 7ZM23 1L23 6L28 6L28 1ZM24 2L27 2L27 5L24 5ZM0 22L7 22L7 29L0 29ZM1 23L1 28L6 28L6 23ZM2 24L5 24L5 27L2 27Z" fill="#2e3436"/></g></g></svg>
